<svg xmlns="http://www.w3.org/2000/svg" width="400.0" height="150.0"><line x1="30.0" x2="370.0" y1="25.0" y2="25.0" stroke="#1967d2" stroke-width="1" /><line x1="30.0" x2="370.0" y1="75.0" y2="75.0" stroke="#1967d2" stroke-width="1" /><line x1="30.0" x2="370.0" y1="125.0" y2="125.0" stroke="#1967d2" stroke-width="1" /><line x1="150.0" x2="150.0" y1="25.0" y2="75.0" stroke="black" stroke-width="3" /><line x1="210.0" x2="210.0" y1="75.0" y2="125.0" stroke="black" stroke-width="3" /><line x1="330.0" x2="330.0" y1="25.0" y2="125.0" stroke="black" stroke-width="3" /><rect x="10.0" y="5.0" width="40" height="40" stroke="black" fill="white" stroke-width="0" /><text x="30.0" y="25.0" dominant-baseline="middle" text-anchor="middle" font-size="14px" font-family="Arial:style=normal:variant=normal:weight=normal:stretch=normal:size=10.0">0: </text><rect x="10.0" y="55.0" width="40" height="40" stroke="black" fill="white" stroke-width="0" /><text x="30.0" y="75.0" dominant-baseline="middle" text-anchor="middle" font-size="14px" font-family="Arial:style=normal:variant=normal:weight=normal:stretch=normal:size=10.0">1: </text><rect x="10.0" y="105.0" width="40" height="40" stroke="black" fill="white" stroke-width="0" /><text x="30.0" y="125.0" dominant-baseline="middle" text-anchor="middle" font-size="14px" font-family="Arial:style=normal:variant=normal:weight=normal:stretch=normal:size=10.0">2: </text><rect x="70.0" y="5.0" width="40" height="40" stroke="black" fill="white" stroke-width="1" /><text x="90.0" y="25.0" dominant-baseline="middle" text-anchor="middle" font-size="18px" font-family="Arial:style=normal:variant=normal:weight=normal:stretch=normal:size=10.0">H</text><circle cx="150.0" cy="25.0" r="10.0" /><rect x="130.0" y="55.0" width="40" height="40" stroke="black" fill="white" stroke-width="1" /><text x="150.0" y="75.0" dominant-baseline="middle" text-anchor="middle" font-size="18px" font-family="Arial:style=normal:variant=normal:weight=normal:stretch=normal:size=10.0">X</text><circle cx="210.0" cy="75.0" r="10.0" /><rect x="190.0" y="105.0" width="40" height="40" stroke="black" fill="white" stroke-width="1" /><text x="210.0" y="125.0" dominant-baseline="middle" text-anchor="middle" font-size="18px" font-family="Arial:style=normal:variant=normal:weight=normal:stretch=normal:size=10.0">X</text><rect x="190.0" y="5.0" width="40" height="40" stroke="black" fill="white" stroke-width="1" /><text x="210.0" y="25.0" dominant-baseline="middle" text-anchor="middle" font-size="18px" font-family="Arial:style=normal:variant=normal:weight=normal:stretch=normal:size=10.0">X</text><rect x="250.0" y="55.0" width="40" height="40" stroke="black" fill="white" stroke-width="1" /><text x="270.0" y="75.0" dominant-baseline="middle" text-anchor="middle" font-size="18px" font-family="Arial:style=normal:variant=normal:weight=normal:stretch=normal:size=10.0">Y</text><rect x="250.0" y="105.0" width="40" height="40" stroke="black" fill="white" stroke-width="1" /><text x="270.0" y="125.0" dominant-baseline="middle" text-anchor="middle" font-size="18px" font-family="Arial:style=normal:variant=normal:weight=normal:stretch=normal:size=10.0">Z</text><rect x="310.0" y="5.0" width="40" height="40" stroke="black" fill="white" stroke-width="1" /><text x="330.0" y="25.0" dominant-baseline="middle" text-anchor="middle" font-size="18px" font-family="Arial:style=normal:variant=normal:weight=normal:stretch=normal:size=10.0">M</text><rect x="310.0" y="55.0" width="40" height="40" stroke="black" fill="white" stroke-width="1" /><text x="330.0" y="75.0" dominant-baseline="middle" text-anchor="middle" font-size="18px" font-family="Arial:style=normal:variant=normal:weight=normal:stretch=normal:size=10.0">M</text><rect x="310.0" y="105.0" width="40" height="40" stroke="black" fill="white" stroke-width="1" /><text x="330.0" y="125.0" dominant-baseline="middle" text-anchor="middle" font-size="18px" font-family="Arial:style=normal:variant=normal:weight=normal:stretch=normal:size=10.0">M</text></svg>