<svg xmlns="http://www.w3.org/2000/svg" width="573.4155859375" height="150.0"><line x1="50.441191406250006" x2="543.4155859375" y1="25.0" y2="25.0" stroke="#1967d2" stroke-width="1" /><line x1="50.441191406250006" x2="543.4155859375" y1="75.0" y2="75.0" stroke="#1967d2" stroke-width="1" /><line x1="50.441191406250006" x2="543.4155859375" y1="125.0" y2="125.0" stroke="#1967d2" stroke-width="1" /><line x1="203.4155859375" x2="203.4155859375" y1="25.0" y2="75.0" stroke="black" stroke-width="3" /><line x1="263.4155859375" x2="263.4155859375" y1="25.0" y2="125.0" stroke="black" stroke-width="3" /><line x1="383.4155859375" x2="383.4155859375" y1="25.0" y2="125.0" stroke="black" stroke-width="3" /><line x1="443.4155859375" x2="443.4155859375" y1="25.0" y2="75.0" stroke="black" stroke-width="3" /><line x1="503.4155859375" x2="503.4155859375" y1="75.0" y2="125.0" stroke="black" stroke-width="3" /><rect x="10.0" y="5.0" width="80.88238281250001" height="40" stroke="black" fill="white" stroke-width="0" /><text x="50.441191406250006" y="25.0" dominant-baseline="middle" text-anchor="middle" font-size="14px" font-family="Arial:style=normal:variant=normal:weight=normal:stretch=normal:size=10.0">Alice: </text><rect x="10.0" y="55.0" width="80.88238281250001" height="40" stroke="black" fill="white" stroke-width="0" /><text x="50.441191406250006" y="75.0" dominant-baseline="middle" text-anchor="middle" font-size="14px" font-family="Arial:style=normal:variant=normal:weight=normal:stretch=normal:size=10.0">Bob: </text><rect x="10.0" y="105.0" width="80.88238281250001" height="40" stroke="black" fill="white" stroke-width="0" /><text x="50.441191406250006" y="125.0" dominant-baseline="middle" text-anchor="middle" font-size="14px" font-family="Arial:style=normal:variant=normal:weight=normal:stretch=normal:size=10.0">Mensagem: </text><rect x="110.8823828125" y="105.0" width="52.533203125" height="40" stroke="black" fill="white" stroke-width="1" /><text x="137.148984375" y="125.0" dominant-baseline="middle" text-anchor="middle" font-size="14px" font-family="Arial:style=normal:variant=normal:weight=normal:stretch=normal:size=10.0">X^0.25</text><rect x="110.8823828125" y="5.0" width="52.533203125" height="40" stroke="black" fill="white" stroke-width="1" /><text x="137.148984375" y="25.0" dominant-baseline="middle" text-anchor="middle" font-size="18px" font-family="Arial:style=normal:variant=normal:weight=normal:stretch=normal:size=10.0">H</text><circle cx="203.4155859375" cy="25.0" r="10.0" /><rect x="183.4155859375" y="55.0" width="40" height="40" stroke="black" fill="white" stroke-width="1" /><text x="203.4155859375" y="75.0" dominant-baseline="middle" text-anchor="middle" font-size="18px" font-family="Arial:style=normal:variant=normal:weight=normal:stretch=normal:size=10.0">X</text><circle cx="263.4155859375" cy="125.0" r="10.0" /><rect x="243.4155859375" y="5.0" width="40" height="40" stroke="black" fill="white" stroke-width="1" /><text x="263.4155859375" y="25.0" dominant-baseline="middle" text-anchor="middle" font-size="18px" font-family="Arial:style=normal:variant=normal:weight=normal:stretch=normal:size=10.0">X</text><rect x="303.4155859375" y="105.0" width="40" height="40" stroke="black" fill="white" stroke-width="1" /><text x="323.4155859375" y="125.0" dominant-baseline="middle" text-anchor="middle" font-size="18px" font-family="Arial:style=normal:variant=normal:weight=normal:stretch=normal:size=10.0">H</text><rect x="363.4155859375" y="105.0" width="40" height="40" stroke="black" fill="white" stroke-width="1" /><text x="383.4155859375" y="125.0" dominant-baseline="middle" text-anchor="middle" font-size="18px" font-family="Arial:style=normal:variant=normal:weight=normal:stretch=normal:size=10.0">M</text><rect x="363.4155859375" y="5.0" width="40" height="40" stroke="black" fill="white" stroke-width="1" /><text x="383.4155859375" y="25.0" dominant-baseline="middle" text-anchor="middle" font-size="18px" font-family="Arial:style=normal:variant=normal:weight=normal:stretch=normal:size=10.0">M</text><circle cx="443.4155859375" cy="25.0" r="10.0" /><rect x="423.4155859375" y="55.0" width="40" height="40" stroke="black" fill="white" stroke-width="1" /><text x="443.4155859375" y="75.0" dominant-baseline="middle" text-anchor="middle" font-size="18px" font-family="Arial:style=normal:variant=normal:weight=normal:stretch=normal:size=10.0">X</text><circle cx="503.4155859375" cy="125.0" r="10.0" /><circle cx="503.4155859375" cy="75.0" r="10.0" /></svg>